<?xml version="1.0" standalone="no"?>
<!DOCTYPE svg PUBLIC "-//W3C//DTD SVG 20010904//EN"
 "http://www.w3.org/TR/2001/REC-SVG-20010904/DTD/svg10.dtd">
<svg version="1.0" xmlns="http://www.w3.org/2000/svg"
 width="1200.000000pt" height="1200.000000pt" viewBox="0 0 1200.000000 1200.000000"
 preserveAspectRatio="xMidYMid meet">
<metadata>
Created by potrace 1.11, written by Peter Selinger 2001-2013
</metadata>
<g transform="translate(0.000000,1200.000000) scale(0.100000,-0.100000)"
fill="#000000" stroke="none">
<path d="M4123 11985 c-360 -65 -641 -317 -750 -672 -24 -80 -27 -103 -27
-258 -1 -149 2 -180 22 -249 81 -278 253 -485 507 -607 143 -69 249 -93 410
-93 159 0 265 24 403 89 255 121 434 333 514 611 20 68 23 102 23 244 0 191
-15 262 -90 415 -183 378 -604 594 -1012 520z"/>
<path d="M8113 11980 c-38 -23 -63 -59 -72 -102 l-6 -31 -110 -19 c-707 -118
-1249 -684 -1337 -1395 l-11 -93 -59 0 c-71 0 -115 -17 -150 -58 -55 -66 -39
-171 33 -223 l34 -24 1725 -3 c949 -1 1739 0 1757 3 18 3 48 21 68 39 34 33
35 35 35 113 0 73 -2 81 -27 105 -37 35 -73 48 -138 48 l-54 0 -6 48 c-26 219
-73 380 -165 567 -220 446 -644 771 -1131 866 -55 10 -113 19 -129 19 -26 0
-30 4 -30 28 0 37 -33 88 -72 112 -43 26 -113 26 -155 0z"/>
<path d="M3803 10003 c-33 -76 -27 -236 11 -288 14 -20 17 -19 186 23 l172 42
29 -24 c54 -46 136 -43 188 5 l22 21 165 -41 c90 -23 172 -41 183 -41 28 0 51
76 51 170 0 84 -23 170 -46 170 -8 0 -88 -18 -178 -41 l-163 -41 -28 26 c-60
55 -140 58 -199 5 l-34 -30 -161 41 c-88 22 -165 40 -171 40 -6 0 -18 -17 -27
-37z"/>
<path d="M2271 9799 c-107 -21 -211 -104 -259 -207 l-27 -57 0 -1300 0 -1300
27 -57 c37 -80 107 -152 187 -191 65 -32 66 -32 238 -35 l172 -3 5 -27 c2 -15
44 -438 93 -939 l88 -913 77 0 77 0 5 -42 c3 -24 31 -401 61 -838 144 -2074
235 -3379 238 -3417 l4 -42 -66 -38 c-141 -81 -246 -218 -258 -339 l-6 -54
1303 0 1303 0 -6 51 c-8 67 -54 162 -106 221 -50 57 -158 130 -232 158 -52 20
-55 23 -52 53 2 18 77 963 168 2102 90 1139 167 2096 171 2128 l6 57 74 0 c68
0 74 2 79 23 3 12 113 744 245 1626 132 882 241 1606 244 1608 5 5 694 -525
756 -582 145 -133 340 -162 508 -76 53 27 125 91 162 146 44 64 850 1784 868
1852 42 158 -46 331 -206 406 -57 27 -78 31 -148 31 -75 0 -89 -3 -158 -37
-51 -26 -87 -52 -111 -81 -19 -24 -168 -273 -329 -552 -162 -280 -297 -508
-301 -507 -4 0 -201 245 -439 543 -374 470 -438 547 -486 576 -97 60 -143 64
-735 64 l-524 0 -10 -37 c-6 -21 -127 -486 -271 -1033 -143 -547 -263 -1003
-266 -1012 -5 -16 5 -18 110 -18 l116 0 0 -1205 0 -1205 -745 0 -745 0 0 1205
0 1205 510 0 c443 0 510 2 510 15 0 8 -103 407 -229 887 -126 480 -246 936
-266 1013 -20 77 -40 150 -45 163 l-10 22 -662 -1 c-365 -1 -683 -5 -707 -10z"/>
</g>
</svg>
